<svg width="805" height="362" viewBox="0 0 805 362" fill="none" xmlns="http://www.w3.org/2000/svg">
<rect width="805" height="362" fill="#1E1E1E"/>
<g clip-path="url(#clip0_0_1)">
<path d="M434.973 281.372L458.271 281.06C462.208 281.007 466.005 282.521 468.827 285.268C471.649 288.015 473.263 291.77 473.316 295.708L473.322 296.19L435.178 296.7L434.973 281.372Z" fill="#090814"/>
<path d="M381.944 60.8101L403.505 63.9096L399.542 81.6853L380.054 76.6078L381.944 60.8101Z" fill="#ED9DA0"/>
<path d="M241.844 295.913C239.383 317.497 229.534 337.346 219 356.481C218.652 357.132 218.293 357.774 217.926 358.425L105.801 359.927C103.526 359.368 101.278 358.753 99.0399 358.087C86.3242 354.401 74.2897 348.679 63.4038 341.144C21.7545 311.976 5.12977 256.03 11.6252 205.613C15.664 174.29 28.9583 142.187 55.4494 124.99C69.4378 115.895 87.5205 112.76 103.804 115.85C104.23 115.921 104.657 116.013 105.092 116.093C119.106 119.051 131.658 126.701 138.91 139.198C151.95 161.655 144.741 189.787 138.816 215.056C132.91 240.324 129.927 270.514 148.297 288.847C142.079 271.316 147.703 250.231 161.834 238.133C172.513 229.005 187.499 225.436 201.249 228.041C202.564 228.303 203.862 228.606 205.14 228.973C208.231 229.833 211.215 231.037 214.038 232.56C235.573 244.21 244.597 271.584 241.844 295.913Z" fill="#F2F2F2"/>
<path d="M176.167 357.053C179.283 357.736 182.409 358.331 185.552 358.858L168.598 359.085C166.371 358.515 164.152 357.909 161.953 357.244C157.118 355.803 152.354 354.139 147.66 352.253C128.836 344.649 111.434 333.088 98.1782 317.573C91.6959 310.057 86.3717 301.616 82.3814 292.528C78.049 282.254 75.2377 271.403 74.0363 260.319C71.3665 237.578 73.4659 214.146 77.6729 191.719C82.0128 168.474 89.2178 145.857 99.1231 124.385C100.314 121.812 101.547 119.254 102.821 116.711C102.908 116.502 103.042 116.316 103.212 116.166C103.382 116.017 103.585 115.908 103.803 115.849C104.248 115.756 104.711 115.844 105.091 116.092C105.546 116.345 105.886 116.764 106.042 117.261C106.197 117.758 106.156 118.296 105.926 118.764C95.6935 139.395 88.0192 161.2 83.0739 183.693C78.2334 205.636 75.6262 228.563 76.9213 251.043C78.1487 272.046 83.9161 292.642 96.6081 309.661C108.192 325.199 124.067 337.358 141.558 345.55C152.628 350.665 164.236 354.524 176.166 357.053L176.167 357.053Z" fill="white"/>
<path d="M213.399 358.485L208.4 358.552C207.831 357.922 207.283 357.283 206.743 356.644C195.173 342.963 187.239 326.585 183.676 309.026C179.343 287.112 182.182 264.385 191.774 244.211C194.45 238.554 197.62 233.144 201.247 228.044C202.563 228.306 203.861 228.609 205.139 228.976C191.271 247.706 184.338 270.67 185.525 293.945C186.713 317.22 195.947 339.36 211.649 356.581C212.214 357.221 212.803 357.856 213.399 358.485Z" fill="white"/>
<path d="M663.456 336.045C664.258 341.722 667.002 346.888 669.911 351.86C670.007 352.029 670.106 352.196 670.207 352.365L699.8 351.969C700.398 351.806 700.984 351.627 701.571 351.436C704.9 350.373 708.035 348.777 710.853 346.711C721.635 338.722 725.625 323.844 723.556 310.589C722.268 302.353 718.533 293.977 711.424 289.628C707.563 287.347 702.984 286.608 698.602 287.559C698.49 287.58 698.379 287.608 698.264 287.632C696.44 288.01 694.716 288.77 693.206 289.862C691.697 290.954 690.435 292.353 689.505 293.967C686.223 299.984 688.324 307.355 690.066 313.979C691.808 320.604 692.803 328.544 688.087 333.514C688.759 331.455 688.872 329.254 688.412 327.137C687.952 325.02 686.938 323.064 685.472 321.469C684.006 319.875 682.142 318.699 680.071 318.063C678 317.427 675.798 317.354 673.69 317.851C673.345 317.93 673.004 318.018 672.669 318.125C671.86 318.374 671.081 318.712 670.346 319.134C664.749 322.359 662.558 329.645 663.456 336.045Z" fill="#F2F2F2"/>
<path d="M681.215 351.71C680.397 351.912 679.576 352.093 678.752 352.252L683.226 352.192C683.81 352.027 684.391 351.851 684.966 351.66C686.232 351.243 687.477 350.77 688.702 350.242C693.671 348.147 698.064 344.889 701.512 340.743C703.169 338.714 704.514 336.449 705.502 334.024C706.572 331.283 707.237 328.4 707.476 325.467C707.903 319.405 707.417 313.313 706.034 307.395C704.724 301.293 702.663 295.377 699.897 289.783C699.565 289.112 699.222 288.446 698.87 287.784C698.846 287.73 698.809 287.681 698.763 287.643C698.717 287.605 698.663 287.578 698.605 287.564C698.547 287.553 698.487 287.554 698.429 287.567C698.371 287.579 698.316 287.603 698.267 287.637C698.149 287.707 698.062 287.82 698.024 287.952C697.987 288.085 698.002 288.226 698.066 288.348C700.911 293.719 703.09 299.417 704.554 305.317C706.057 311.102 706.764 317.066 706.653 323.042C706.626 328.599 704.964 334.026 701.875 338.645C698.866 342.809 694.881 346.17 690.269 348.432C687.384 349.86 684.349 350.96 681.22 351.711L681.215 351.71Z" fill="white"/>
<path d="M671.402 352.351L672.721 352.333C672.867 352.163 673.007 351.99 673.144 351.818C676.1 348.127 678.078 343.75 678.893 339.092C679.882 333.28 678.973 327.304 676.299 322.049C675.553 320.575 674.678 319.17 673.686 317.85C673.341 317.929 673 318.017 672.665 318.124C676.457 322.967 678.449 328.977 678.3 335.127C678.152 341.276 675.872 347.183 671.851 351.838C671.706 352.008 671.555 352.184 671.402 352.351Z" fill="white"/>
<path d="M394.981 209.048L302.366 210.288L301.003 181.826C300.944 180.592 301.153 179.36 301.615 178.215C302.078 177.07 302.784 176.039 303.683 175.192C304.582 174.346 305.655 173.704 306.826 173.312C307.997 172.919 309.239 172.785 310.467 172.918L364.451 178.796L364.458 178.796C372.448 178.711 380.146 181.797 385.866 187.377C391.585 192.957 394.861 200.576 394.974 208.566L394.981 209.048Z" fill="black"/>
<path d="M352.349 108.592L287.755 109.457C286.896 109.468 286.048 109.649 285.258 109.988C284.469 110.327 283.754 110.819 283.155 111.434C282.555 112.05 282.083 112.777 281.765 113.576C281.447 114.374 281.29 115.227 281.301 116.086L282.166 180.68C282.178 181.539 282.358 182.388 282.697 183.177C283.037 183.966 283.528 184.681 284.144 185.28C284.759 185.88 285.487 186.352 286.285 186.67C287.083 186.988 287.936 187.146 288.795 187.134L353.39 186.269C354.249 186.258 355.097 186.077 355.887 185.738C356.676 185.399 357.391 184.907 357.99 184.291C358.589 183.676 359.062 182.948 359.38 182.15C359.698 181.352 359.855 180.499 359.843 179.64L358.978 115.046C358.967 114.186 358.787 113.338 358.447 112.549C358.108 111.759 357.617 111.044 357.001 110.445C356.385 109.846 355.658 109.374 354.86 109.056C354.061 108.738 353.208 108.58 352.349 108.592Z" fill="#CCCCCC"/>
<path d="M338.449 157.088L308.031 163.436C306.226 163.811 304.347 163.454 302.805 162.445C301.264 161.435 300.185 159.855 299.807 158.052L297.301 146.044C296.926 144.24 297.283 142.361 298.292 140.819C299.302 139.277 300.882 138.199 302.685 137.82L333.103 131.473C334.907 131.098 336.787 131.455 338.328 132.464C339.87 133.473 340.949 135.053 341.327 136.857L343.833 148.864C344.207 150.669 343.851 152.548 342.841 154.09C341.832 155.632 340.252 156.71 338.449 157.088Z" fill="black"/>
<path d="M332.157 142.947L308.942 147.792C308.732 147.835 308.515 147.837 308.304 147.797C308.093 147.758 307.892 147.676 307.712 147.559C307.533 147.441 307.378 147.289 307.257 147.112C307.136 146.934 307.051 146.735 307.007 146.524C306.963 146.314 306.961 146.097 307.001 145.886C307.041 145.675 307.122 145.474 307.24 145.294C307.358 145.115 307.51 144.96 307.687 144.839C307.865 144.718 308.064 144.633 308.275 144.589L331.489 139.745C331.699 139.701 331.916 139.699 332.127 139.739C332.338 139.779 332.539 139.86 332.719 139.978C332.898 140.095 333.053 140.247 333.174 140.425C333.295 140.602 333.38 140.802 333.424 141.012C333.468 141.222 333.47 141.439 333.43 141.65C333.39 141.861 333.309 142.062 333.191 142.242C333.073 142.422 332.921 142.577 332.744 142.698C332.567 142.819 332.367 142.903 332.157 142.947Z" fill="white"/>
<path d="M327.722 149.72L315.714 152.226C315.504 152.27 315.287 152.272 315.076 152.232C314.865 152.192 314.664 152.111 314.484 151.993C314.305 151.876 314.15 151.724 314.029 151.546C313.908 151.369 313.823 151.169 313.779 150.959C313.735 150.749 313.733 150.532 313.773 150.321C313.813 150.11 313.894 149.909 314.012 149.729C314.13 149.549 314.282 149.395 314.459 149.274C314.637 149.153 314.836 149.068 315.047 149.024L327.054 146.518C327.264 146.474 327.481 146.472 327.692 146.512C327.903 146.552 328.104 146.633 328.284 146.751C328.464 146.868 328.619 147.02 328.74 147.198C328.86 147.375 328.945 147.575 328.989 147.785C329.033 147.995 329.035 148.212 328.995 148.423C328.955 148.634 328.874 148.835 328.756 149.015C328.639 149.195 328.487 149.35 328.309 149.471C328.132 149.592 327.932 149.676 327.722 149.72Z" fill="white"/>
<path d="M358.978 115.046L359.093 123.631L281.416 124.671L281.301 116.086C281.29 115.227 281.447 114.374 281.765 113.576C282.083 112.777 282.555 112.05 283.155 111.434C283.754 110.819 284.469 110.327 285.258 109.988C286.048 109.649 286.896 109.468 287.755 109.457L352.349 108.592C353.208 108.58 354.061 108.738 354.86 109.056C355.658 109.374 356.385 109.846 357.001 110.445C357.617 111.044 358.108 111.759 358.447 112.549C358.787 113.338 358.967 114.186 358.978 115.046Z" fill="#B3B3B3"/>
<path d="M514.242 124.244C513.775 122.803 512.996 121.481 511.963 120.373C510.929 119.265 509.665 118.396 508.259 117.83C506.853 117.263 505.341 117.011 503.827 117.092C502.314 117.173 500.837 117.585 499.5 118.299L410.206 87.604L406.59 109.854L495.5 133.028C496.848 135.195 498.944 136.791 501.391 137.516C503.838 138.241 506.465 138.043 508.775 136.959C511.086 135.876 512.919 133.983 513.926 131.639C514.934 129.294 515.047 126.662 514.243 124.24L514.242 124.244Z" fill="#ED9DA0"/>
<path opacity="0.101" d="M514.242 124.244C513.775 122.803 512.996 121.481 511.963 120.373C510.929 119.265 509.665 118.396 508.259 117.83C506.853 117.263 505.341 117.011 503.827 117.092C502.314 117.173 500.837 117.585 499.5 118.299L410.206 87.604L406.59 109.854L495.5 133.028C496.848 135.195 498.944 136.791 501.391 137.516C503.838 138.241 506.465 138.043 508.775 136.959C511.086 135.876 512.919 133.983 513.926 131.639C514.934 129.294 515.047 126.662 514.243 124.24L514.242 124.244Z" fill="black"/>
<path d="M426.033 91.4374L417.936 113.473C417.705 114.1 417.342 114.67 416.872 115.144C416.401 115.618 415.834 115.985 415.209 116.22C414.584 116.455 413.915 116.553 413.248 116.506C412.582 116.46 411.934 116.27 411.347 115.95L390.795 104.745C389.206 104.155 387.748 103.258 386.505 102.106C385.262 100.953 384.258 99.5664 383.551 98.0257C382.844 96.485 382.447 94.8201 382.384 93.1261C382.32 91.432 382.591 89.742 383.18 88.1525C383.769 86.563 384.666 85.1052 385.819 83.8623C386.972 82.6194 388.358 81.6157 389.899 80.9085C391.439 80.2014 393.104 79.8046 394.798 79.7409C396.492 79.6772 398.182 79.9477 399.772 80.5372L422.613 85.2837C423.268 85.4197 423.885 85.6952 424.423 86.0913C424.961 86.4873 425.407 86.9947 425.731 87.5788C426.055 88.1629 426.25 88.81 426.301 89.4761C426.353 90.1422 426.26 90.8115 426.029 91.4385L426.033 91.4374Z" fill="black"/>
<path d="M521.509 144.448L489.86 159.349L494.252 175.031C502.732 205.317 505.298 236.952 501.809 268.208L525.156 272.759L543.796 223.289L536.292 167.414L521.509 144.448Z" fill="black"/>
<path d="M584.964 216.463C564.042 216.743 547.196 232.181 546.626 251.238L624.219 250.199C623.139 231.164 605.886 216.183 584.964 216.463Z" fill="#3F3D56"/>
<path d="M568.721 219.964C566.481 134.004 517.623 142.57 517.623 142.57C517.623 142.57 518.898 169.319 519.349 170.15C551.337 228.766 500.773 298.665 435.055 286.81C433.816 286.587 432.626 286.359 431.484 286.127C423.155 284.504 415.758 279.77 410.796 272.887C405.834 266.004 403.68 257.489 404.772 249.074C410.534 197.136 378.432 198.485 378.432 198.485L331.473 199.113L306.796 177.489C305.925 176.725 304.879 176.186 303.752 175.919C302.624 175.653 301.448 175.667 300.327 175.96C299.206 176.253 298.174 176.817 297.321 177.601C296.468 178.386 295.82 179.368 295.435 180.46L292.411 189.018C292.411 189.018 246.159 194.462 250.625 239.761L264.945 239.569C264.927 240.858 264.996 242.147 265.151 243.427L372.007 241.126C378.271 240.991 383.868 245.993 383.977 252.257C384.004 253.782 383.723 255.297 383.151 256.711C382.579 258.125 381.727 259.409 380.647 260.486C379.568 261.563 378.282 262.411 376.866 262.98C375.451 263.549 373.936 263.826 372.411 263.796L355.173 263.452C350.183 287.164 363.423 302.911 377.91 312.73C391.548 321.84 407.651 326.552 424.048 326.232L470.854 325.605C531.649 324.791 541.574 273.507 541.574 273.507C573.237 259.568 568.721 219.964 568.721 219.964Z" fill="#3F3D56"/>
<path d="M583.885 352.075C613.861 351.673 637.837 327.047 637.435 297.071C637.034 267.094 612.407 243.119 582.431 243.521C552.455 243.922 528.479 268.548 528.881 298.525C529.282 328.501 553.908 352.476 583.885 352.075Z" fill="#3F3D56"/>
<path d="M583.336 311.102C590.683 311.003 596.559 304.967 596.461 297.621C596.362 290.274 590.327 284.397 582.98 284.496C575.633 284.594 569.757 290.63 569.855 297.977C569.954 305.324 575.989 311.2 583.336 311.102Z" fill="white"/>
<path d="M309.844 355.746C344.351 355.284 371.949 326.936 371.487 292.43C371.025 257.924 342.677 230.325 308.171 230.787C273.664 231.25 246.066 259.597 246.528 294.104C246.99 328.61 275.338 356.208 309.844 355.746Z" fill="#3F3D56"/>
<path d="M309.213 308.58C317.67 308.467 324.435 301.519 324.321 293.062C324.208 284.604 317.26 277.84 308.803 277.953C300.345 278.066 293.581 285.014 293.694 293.472C293.807 301.929 300.755 308.694 309.213 308.58Z" fill="white"/>
<path d="M490.009 163.625L478.134 132.659C477.515 131.046 477.219 129.326 477.265 127.598C477.31 125.87 477.696 124.168 478.399 122.589C479.102 121.011 480.109 119.586 481.363 118.396C482.617 117.206 484.093 116.276 485.707 115.656L518.396 103.124C521.241 102.006 524.28 101.463 527.336 101.526C530.392 101.589 533.406 102.256 536.203 103.489C539 104.722 541.525 106.497 543.633 108.711C545.741 110.925 547.389 113.534 548.484 116.389C549.578 119.243 550.097 122.285 550.009 125.341C549.922 128.397 549.23 131.405 547.975 134.192C546.719 136.979 544.924 139.49 542.693 141.58C540.462 143.67 537.84 145.297 534.977 146.368L490.009 163.625Z" fill="#3F3D56"/>
<path d="M549.364 124.445C549.407 127.842 548.688 131.205 547.26 134.288C545.831 137.371 543.73 140.094 541.11 142.257C537.033 141.24 533.226 139.347 529.955 136.709C526.683 134.072 524.025 130.754 522.165 126.986C520.306 123.218 519.289 119.09 519.186 114.889C519.083 110.688 519.896 106.515 521.568 102.66C524.868 101.896 528.297 101.882 531.603 102.617C534.91 103.351 538.009 104.817 540.675 106.907C543.341 108.997 545.505 111.656 547.008 114.692C548.511 117.727 549.316 121.06 549.362 124.447L549.364 124.445Z" fill="black"/>
<path d="M258.912 245.922C266.373 245.822 272.323 238.397 272.201 229.338C272.08 220.279 265.933 213.015 258.473 213.115C251.012 213.215 245.062 220.64 245.184 229.7C245.305 238.759 251.451 246.022 258.912 245.922Z" fill="black"/>
<path d="M438.042 285.195L449.87 285.037L455.088 254.279L437.629 254.513L438.042 285.195Z" fill="#ED9DA0"/>
<path d="M451.601 272.417C451.463 272.419 451.325 272.414 451.186 272.403L434.798 271.43C434.136 271.378 433.494 271.173 432.922 270.833C432.351 270.493 431.865 270.027 431.502 269.47C431.14 268.912 430.91 268.279 430.831 267.619C430.751 266.959 430.825 266.289 431.045 265.662L452.296 216.143C452.446 215.702 452.504 215.235 452.465 214.771C452.426 214.307 452.292 213.855 452.071 213.446C451.849 213.031 451.543 212.667 451.171 212.379C450.8 212.091 450.371 211.885 449.914 211.774C439.579 209.22 413.045 202.402 390.05 194.319C380.202 190.85 373.954 185.742 371.491 179.124C368.244 170.397 372.766 162.339 372.961 162.003L373.113 161.737L394.671 163.406L418.041 165.079L469.563 191.824C473.88 194.085 477.187 197.889 478.826 202.478C480.465 207.068 480.314 212.107 478.405 216.59L455.529 269.791C455.198 270.562 454.651 271.22 453.954 271.686C453.257 272.152 452.44 272.406 451.601 272.417Z" fill="#090814"/>
<path d="M397.133 67.4343C410.222 67.259 420.691 56.5061 420.516 43.417C420.34 30.3279 409.587 19.8592 396.498 20.0345C383.409 20.2098 372.941 30.9628 373.116 44.0518C373.291 57.1409 384.044 67.6096 397.133 67.4343Z" fill="#ED9DA0"/>
<path d="M431.327 288.18L443.154 288.022L448.372 257.264L430.914 257.498L431.327 288.18Z" fill="#ED9DA0"/>
<path d="M428.257 284.358L451.555 284.046C453.505 284.02 455.441 284.378 457.252 285.1C459.063 285.822 460.715 286.894 462.112 288.254C463.509 289.614 464.624 291.237 465.394 293.028C466.165 294.819 466.574 296.745 466.6 298.695L466.607 299.177L428.462 299.688L428.257 284.358Z" fill="#090814"/>
<path d="M444.886 275.402C444.748 275.404 444.609 275.399 444.47 275.388L428.083 274.415C427.42 274.363 426.778 274.159 426.206 273.819C425.635 273.479 425.149 273.013 424.786 272.455C424.424 271.898 424.194 271.265 424.115 270.604C424.035 269.944 424.109 269.275 424.329 268.647L445.58 219.128C445.73 218.687 445.788 218.22 445.749 217.756C445.71 217.292 445.576 216.841 445.354 216.431C445.133 216.016 444.826 215.652 444.455 215.364C444.083 215.076 443.654 214.87 443.197 214.76C432.862 212.205 406.328 205.388 383.333 197.304C373.486 193.835 367.237 188.728 364.774 182.109C361.527 173.383 366.049 165.324 366.245 164.988L366.396 164.723L387.955 166.391L411.324 168.064L462.846 194.81C467.163 197.07 470.471 200.874 472.109 205.464C473.748 210.053 473.598 215.092 471.688 219.576L448.813 272.777C448.482 273.547 447.935 274.205 447.238 274.671C446.541 275.137 445.724 275.391 444.886 275.402Z" fill="#090814"/>
<path d="M404.603 79.3053L379.399 70.9571C379.399 70.9571 363.811 83.267 371.78 113.185C375.937 128.622 375.006 144.989 369.123 159.855C368.416 161.694 367.596 163.488 366.668 165.226C366.668 165.226 395.103 198.624 420.821 173.187L410.036 124.594C410.036 124.594 425.523 92.0543 404.603 79.3053Z" fill="black"/>
<path d="M400.087 68.1998C396.646 63.1965 393.89 56.2307 397.54 51.3774C401.142 46.5868 408.385 47.1878 413.969 45.0149C421.75 41.9874 426.161 32.7405 424.637 24.5321C423.113 16.3238 416.416 9.59189 408.512 6.90651C400.607 4.22112 391.747 5.24786 384.085 8.56477C374.654 12.6474 366.62 20.4087 363.338 30.1446C360.056 39.8804 362.036 51.4989 369.213 58.8544C376.908 66.7411 388.847 68.7104 399.861 68.4339" fill="#090814"/>
<path d="M377.464 25.426C373.26 28.9426 366.755 27.4925 362.15 24.5169C357.546 21.5413 353.788 17.2673 348.821 14.9526C340.066 10.8695 329.577 13.8032 321.167 18.5663C312.757 23.3293 305.337 29.8533 296.438 33.6208C287.54 37.3883 276.125 37.7222 269.259 30.9235C267.656 35.7761 267.59 41.005 269.069 45.8966C270.548 50.7882 273.5 55.1044 277.523 58.2563C281.546 61.4082 286.443 63.2423 291.546 63.5082C296.649 63.7742 301.711 62.4592 306.039 59.7426C315.758 53.6398 321.009 41.0474 331.961 37.6044C338.021 35.6991 344.574 37.0804 350.745 38.5889C356.916 40.0974 363.351 41.7304 369.538 40.2934C375.726 38.8564 381.456 33.2012 380.582 26.9093L377.464 25.426Z" fill="#090814"/>
<path d="M513.048 123.293C512.405 121.92 511.47 120.705 510.307 119.733C509.145 118.76 507.783 118.055 506.318 117.666C504.853 117.277 503.321 117.214 501.829 117.481C500.337 117.748 498.922 118.339 497.684 119.212L405.285 99.77L404.442 122.299L495.532 134.326C497.136 136.311 499.414 137.639 501.932 138.057C504.451 138.474 507.035 137.954 509.195 136.593C511.354 135.232 512.94 133.126 513.65 130.674C514.36 128.222 514.146 125.594 513.048 123.29L513.048 123.293Z" fill="#ED9DA0"/>
<path d="M421.467 101.621L416.15 124.488C415.999 125.138 415.709 125.749 415.301 126.277C414.892 126.806 414.375 127.24 413.783 127.551C413.192 127.861 412.541 128.04 411.874 128.077C411.207 128.113 410.54 128.004 409.918 127.759L388.144 119.174C386.494 118.785 384.937 118.075 383.561 117.085C382.186 116.094 381.018 114.842 380.127 113.4C379.235 111.959 378.636 110.355 378.363 108.682C378.091 107.009 378.151 105.298 378.54 103.648C378.929 101.998 379.639 100.441 380.63 99.0649C381.62 97.6892 382.872 96.5221 384.314 95.6303C385.756 94.7385 387.359 94.1393 389.032 93.8671C390.706 93.5949 392.416 93.6549 394.066 94.0438L417.32 95.9325C417.985 95.987 418.632 96.1842 419.214 96.5109C419.797 96.8375 420.302 97.2859 420.696 97.8255C421.09 98.365 421.363 98.9832 421.496 99.6377C421.63 100.292 421.62 100.968 421.469 101.618L421.467 101.621Z" fill="black"/>
<path d="M502.648 141.323C506.379 141.273 509.362 138.208 509.312 134.478C509.262 130.748 506.198 127.764 502.467 127.814C498.737 127.864 495.753 130.929 495.803 134.659C495.853 138.389 498.918 141.373 502.648 141.323Z" fill="black"/>
<path d="M804.611 349.603C804.613 349.858 804.515 350.105 804.336 350.288C804.158 350.471 803.914 350.576 803.659 350.58L5.66013 361.268C5.40422 361.272 5.15743 361.173 4.97405 360.995C4.79067 360.816 4.68572 360.572 4.6823 360.316C4.67887 360.06 4.77724 359.814 4.95577 359.63C5.1343 359.447 5.37837 359.342 5.63428 359.338L803.633 348.651C803.888 348.648 804.135 348.747 804.318 348.925C804.501 349.103 804.606 349.347 804.611 349.603Z" fill="#3F3D56"/>
</g>
<defs>
<clipPath id="clip0_0_1">
<rect width="800" height="350.599" fill="white" transform="translate(0 10.7136) rotate(-0.767329)"/>
</clipPath>
</defs>
</svg>
